Coordinates
version=1
nRows=14
nColumns=33
inDegrees=yes

Units are S.I. units (second, meters, Newtons, ...)
Angles are in degrees.

endheader
time	ground_thorax_rot_x	ground_thorax_rot_y	ground_thorax_rot_z	ground_thorax_tx	ground_thorax_ty	ground_thorax_tz	clav_prot_r	clav_elev_r	scapula_abduction_r	scapula_elevation_r	scapula_upward_rot_r	scapula_winging_r	shoulder_elv_r	plane_of_elev_r	axial_rot_r	elbow_flexion_r	pro_sup_r	wrist_flex_r	wrist_dev_r	clav_prot_l	clav_elev_l	scapula_abduction_l	scapula_elevation_l	scapula_upward_rot_l	scapula_winging_l	shoulder_elv_l	plane_of_elev_l	axial_rot_l	elbow_flexion_l	pro_sup_l	wrist_flex_l	wrist_dev_l	
4.2300	39.002972	8.983074	13.820549	-241.831527	836.372433	6.418487	14.285355	37.230893	35.023937	45.000000	-45.000000	2073.667282	-465.985979	147.394960	180.000000	730.303639	65.889605	25.688405	7.814528	10.213766	-45.000000	-36.906784	45.000000	-45.000000	-2419.011050	1346.389284	137.743915	-180.000000	1447.378566	33.203273	6.899774	-23.688982	
4.2400	38.942879	9.120022	13.970038	-241.739250	835.474470	6.314802	14.221157	37.183602	34.886525	45.000000	-45.000000	2073.780739	-466.042047	147.428616	180.000000	730.208571	65.455688	25.715911	7.858563	10.232378	-45.000000	-36.811052	45.000000	-45.000000	-2419.041845	1346.276264	137.773334	-180.000000	1447.239361	32.378055	7.204795	-23.752906	
4.2500	38.878513	9.233338	14.095411	-241.614769	834.597532	6.218578	14.129764	37.125029	34.737872	45.000000	-45.000000	2073.892888	-466.085626	147.460647	180.000000	730.127311	65.043512	25.759482	7.880572	10.242997	-45.000000	-36.721546	45.000000	-45.000000	-2419.077025	1346.184989	137.807884	-180.000000	1447.121594	31.602520	7.526773	-23.863862	
4.2600	38.819042	9.327628	14.225672	-241.403169	833.759196	6.139487	14.085702	37.093238	34.631667	45.000000	-45.000000	2073.993388	-466.137347	147.500697	180.000000	730.045675	64.700500	25.771274	7.911539	10.257501	-45.000000	-36.660506	45.000000	-45.000000	-2419.125722	1346.087131	137.829155	-180.000000	1447.019789	30.911453	7.730517	-23.895196	
4.2700	38.757829	9.395855	14.347216	-241.121392	832.972623	6.075833	14.060131	37.074168	34.551895	45.000000	-45.000000	2074.077167	-466.194038	147.534110	180.000000	729.975985	64.421570	25.769836	7.936267	10.268608	-45.000000	-36.624138	45.000000	-45.000000	-2419.174317	1345.997877	137.836801	-180.000000	1446.939796	30.317382	7.856824	-23.896008	
4.2800	38.696923	9.434013	14.458165	-240.780247	832.253292	6.026209	14.047152	37.067775	34.490427	45.000000	-45.000000	2074.156246	-466.237959	147.567708	180.000000	729.932385	64.209027	25.763776	7.950636	10.277847	-45.000000	-36.595829	45.000000	-45.000000	-2419.232221	1345.926585	137.841538	-180.000000	1446.891889	29.834127	7.910411	-23.878287	
4.2900	38.632413	9.445505	14.555289	-240.408231	831.614164	5.985526	14.039803	37.066146	34.447858	45.000000	-45.000000	2074.214549	-466.283767	147.584199	180.000000	729.909367	64.058775	25.755737	7.954847	10.280703	-45.000000	-36.584612	45.000000	-45.000000	-2419.278527	1345.869936	137.831774	-180.000000	1446.866198	29.465966	7.906485	-23.852228	
4.3000	38.567355	9.429712	14.634982	-240.037581	831.064668	5.947266	14.026463	37.071874	34.405653	45.000000	-45.000000	2074.279671	-466.303181	147.600668	180.000000	729.924018	63.956517	25.760876	7.946107	10.282279	-45.000000	-36.561885	45.000000	-45.000000	-2419.330226	1345.840830	137.828397	-180.000000	1446.871587	29.208027	7.870558	-23.840071	
4.3100	38.501132	9.395512	14.700067	-239.691968	830.609817	5.905662	14.013525	37.078137	34.376447	45.000000	-45.000000	2074.325459	-466.323514	147.599258	180.000000	729.953253	63.896225	25.768803	7.934123	10.279373	-45.000000	-36.548323	45.000000	-45.000000	-2419.363253	1345.820603	137.813565	-180.000000	1446.887003	29.053124	7.804767	-23.827353	
4.3200	38.438437	9.342179	14.743760	-239.385092	830.249811	5.856638	13.999742	37.086126	34.348417	45.000000	-45.000000	2074.377785	-466.322791	147.601639	180.000000	730.008400	63.861988	25.787283	7.920149	10.277908	-45.000000	-36.531666	45.000000	-45.000000	-2419.400259	1345.814715	137.809786	-180.000000	1446.921718	28.986486	7.723375	-23.822476	
4.3300	38.377785	9.279447	14.771663	-239.120078	829.980266	5.798256	13.986985	37.086140	34.334860	45.000000	-45.000000	2074.404163	-466.331614	147.583349	180.000000	730.062570	63.844120	25.803110	7.910190	10.275500	-45.000000	-36.529060	45.000000	-45.000000	-2419.412009	1345.806604	137.792239	-180.000000	1446.954496	28.991063	7.633395	-23.815638	
4.3400	38.322549	9.207671	14.781140	-238.890686	829.793004	5.730712	13.976530	37.087414	34.322428	45.000000	-45.000000	2074.441664	-466.319926	147.569680	180.000000	730.133385	63.824082	25.822976	7.904000	10.278502	-45.000000	-36.523711	45.000000	-45.000000	-2419.427989	1345.806540	137.788021	-180.000000	1446.999941	29.042216	7.544266	-23.813245	
4.3500	38.271614	9.135155	14.775926	-238.683112	829.676513	5.655833	13.967380	37.081009	34.325591	45.000000	-45.000000	2074.455699	-466.317298	147.541773	180.000000	730.207745	63.792175	25.835193	7.903002	10.282159	-45.000000	-36.535986	45.000000	-45.000000	-2419.421705	1345.800441	137.774585	-180.000000	1447.046649	29.118286	7.461593	-23.809561	
4.3600	38.225640	9.064165	14.759069	-238.478785	829.617270	5.576377	13.963371	37.076795	34.326602	45.000000	-45.000000	2074.487202	-466.292299	147.521824	180.000000	730.294700	63.736531	25.845095	7.907042	10.291835	-45.000000	-36.548360	45.000000	-45.000000	-2419.425394	1345.799286	137.780215	-180.000000	1447.103512	29.196320	7.389056	-23.808568	
